<svg xmlns="http://www.w3.org/2000/svg" xmlns:xlink="http://www.w3.org/1999/xlink" viewBox="0 0 738.5185706893476 348.8889135352886" width="738.5185706893476" height="348.8889135352886"><path d="M 200.164,241.269 C 202.664,241.269 203.018,242.244 205.164,241.269" stroke-width="5.364" stroke="black" fill="none" stroke-linecap="round"></path><path d="M 205.164,241.269 C 208.518,239.744 208.410,239.022 211.164,236.269" stroke-width="4.766" stroke="black" fill="none" stroke-linecap="round"></path><path d="M 211.164,236.269 C 215.410,232.022 215.520,232.035 219.164,227.269" stroke-width="4.320" stroke="black" fill="none" stroke-linecap="round"></path><path d="M 219.164,227.269 C 222.020,223.535 221.854,223.375 224.164,219.269" stroke-width="3.742" stroke="black" fill="none" stroke-linecap="round"></path><path d="M 224.164,219.269 C 226.354,215.375 226.072,215.220 228.164,211.269" stroke-width="3.702" stroke="black" fill="none" stroke-linecap="round"></path><path d="M 228.164,211.269 C 230.572,206.720 230.864,206.868 233.164,202.269" stroke-width="3.561" stroke="black" fill="none" stroke-linecap="round"></path><path d="M 233.164,202.269 C 235.364,197.868 235.838,197.911 237.164,193.269" stroke-width="3.505" stroke="black" fill="none" stroke-linecap="round"></path><path d="M 237.164,193.269 C 237.838,190.911 236.939,190.750 237.164,188.269" stroke-width="4.055" stroke="black" fill="none" stroke-linecap="round"></path><path d="M 237.164,188.269 C 237.439,185.250 237.913,185.289 238.164,182.269" stroke-width="4.116" stroke="black" fill="none" stroke-linecap="round"></path><path d="M 238.164,182.269 C 238.413,179.289 238.164,179.269 238.164,176.269" stroke-width="4.098" stroke="black" fill="none" stroke-linecap="round"></path><path d="M 238.164,176.269 C 238.164,172.769 238.454,172.740 238.164,169.269" stroke-width="4.018" stroke="black" fill="none" stroke-linecap="round"></path><path d="M 238.164,169.269 C 237.954,166.740 238.200,164.061 237.164,164.269" stroke-width="4.580" stroke="black" fill="none" stroke-linecap="round"></path><path d="M 237.164,164.269 C 235.700,164.561 234.407,166.955 233.164,170.269" stroke-width="5.079" stroke="black" fill="none" stroke-linecap="round"></path><path d="M 233.164,170.269 C 231.407,174.955 232.247,175.286 231.164,180.269" stroke-width="3.805" stroke="black" fill="none" stroke-linecap="round"></path><path d="M 231.164,180.269 C 229.747,186.786 228.846,186.675 228.164,193.269" stroke-width="3.384" stroke="black" fill="none" stroke-linecap="round"></path><path d="M 228.164,193.269 C 227.346,201.175 228.164,201.269 228.164,209.269" stroke-width="2.963" stroke="black" fill="none" stroke-linecap="round"></path><path d="M 228.164,209.269 C 228.164,217.769 228.164,217.769 228.164,226.269" stroke-width="2.794" stroke="black" fill="none" stroke-linecap="round"></path><path d="M 228.164,226.269 C 228.164,235.269 228.164,235.269 228.164,244.269" stroke-width="2.750" stroke="black" fill="none" stroke-linecap="round"></path><path d="M 228.164,244.269 C 228.164,251.769 228.164,251.769 228.164,259.269" stroke-width="2.856" stroke="black" fill="none" stroke-linecap="round"></path><path d="M 228.164,259.269 C 228.164,264.769 228.164,264.769 228.164,270.269" stroke-width="3.226" stroke="black" fill="none" stroke-linecap="round"></path><path d="M 228.164,270.269 C 228.164,274.769 228.164,274.769 228.164,279.269" stroke-width="3.479" stroke="black" fill="none" stroke-linecap="round"></path><path d="M 228.164,279.269 C 228.164,282.769 228.164,282.769 228.164,286.269" stroke-width="3.818" stroke="black" fill="none" stroke-linecap="round"></path><path d="M 228.164,286.269 C 228.164,288.769 228.164,288.769 228.164,291.269" stroke-width="4.518" stroke="black" fill="none" stroke-linecap="round"></path><path d="M 212.164,259.269 C 215.164,259.269 215.359,260.154 218.164,259.269" stroke-width="5.323" stroke="black" fill="none" stroke-linecap="round"></path><path d="M 218.164,259.269 C 224.859,257.154 224.597,256.114 231.164,253.269" stroke-width="3.501" stroke="black" fill="none" stroke-linecap="round"></path><path d="M 231.164,253.269 C 239.597,249.614 239.745,249.952 248.164,246.269" stroke-width="2.832" stroke="black" fill="none" stroke-linecap="round"></path><path d="M 248.164,246.269 C 255.745,242.952 255.708,242.859 263.164,239.269" stroke-width="2.845" stroke="black" fill="none" stroke-linecap="round"></path><path d="M 263.164,239.269 C 269.208,236.359 269.239,236.405 275.164,233.269" stroke-width="3.099" stroke="black" fill="none" stroke-linecap="round"></path><path d="M 251.164,204.269 C 251.164,208.769 251.164,208.769 251.164,213.269" stroke-width="5.214" stroke="black" fill="none" stroke-linecap="round"></path><path d="M 251.164,213.269 C 251.164,218.769 251.164,218.769 251.164,224.269" stroke-width="3.738" stroke="black" fill="none" stroke-linecap="round"></path><path d="M 251.164,224.269 C 251.164,231.769 251.164,231.769 251.164,239.269" stroke-width="3.180" stroke="black" fill="none" stroke-linecap="round"></path><path d="M 251.164,239.269 C 251.164,246.769 251.164,246.769 251.164,254.269" stroke-width="2.981" stroke="black" fill="none" stroke-linecap="round"></path><path d="M 251.164,254.269 C 251.164,260.269 251.164,260.269 251.164,266.269" stroke-width="3.196" stroke="black" fill="none" stroke-linecap="round"></path><path d="M 251.164,266.269 C 251.164,271.769 251.486,271.795 251.164,277.269" stroke-width="3.291" stroke="black" fill="none" stroke-linecap="round"></path><path d="M 262.164,244.269 C 263.164,247.269 263.752,247.173 264.164,250.269" stroke-width="5.399" stroke="black" fill="none" stroke-linecap="round"></path><path d="M 264.164,250.269 C 264.752,254.673 263.845,254.800 264.164,259.269" stroke-width="4.696" stroke="black" fill="none" stroke-linecap="round"></path><path d="M 264.164,259.269 C 264.345,261.800 264.664,261.769 265.164,264.269" stroke-width="4.473" stroke="black" fill="none" stroke-linecap="round"></path><path d="M 265.164,264.269 C 265.664,266.769 265.546,266.797 266.164,269.269" stroke-width="4.326" stroke="black" fill="none" stroke-linecap="round"></path><path d="M 265.164,248.269 C 267.664,246.269 267.918,246.515 270.164,244.269" stroke-width="5.538" stroke="black" fill="none" stroke-linecap="round"></path><path d="M 270.164,244.269 C 271.918,242.515 273.931,239.656 273.164,240.269" stroke-width="5.419" stroke="black" fill="none" stroke-linecap="round"></path><path d="M 285.164,229.269 C 285.164,233.269 285.164,233.269 285.164,237.269" stroke-width="5.444" stroke="black" fill="none" stroke-linecap="round"></path><path d="M 285.164,237.269 C 285.164,240.269 285.164,240.269 285.164,243.269" stroke-width="4.978" stroke="black" fill="none" stroke-linecap="round"></path><path d="M 285.164,243.269 C 285.164,246.769 285.164,246.769 285.164,250.269" stroke-width="4.947" stroke="black" fill="none" stroke-linecap="round"></path><path d="M 285.164,250.269 C 285.164,253.269 285.164,253.269 285.164,256.269" stroke-width="4.814" stroke="black" fill="none" stroke-linecap="round"></path><circle r="1.5" cx="282.1643524169922" cy="216.2685089111328" fill="black"></circle><path d="M 289.164,187.269 C 289.664,190.269 289.664,190.269 290.164,193.269" stroke-width="5.274" stroke="black" fill="none" stroke-linecap="round"></path><path d="M 290.164,193.269 C 291.164,199.269 291.304,199.248 292.164,205.269" stroke-width="3.698" stroke="black" fill="none" stroke-linecap="round"></path><path d="M 292.164,205.269 C 293.304,213.248 292.840,213.323 294.164,221.269" stroke-width="3.090" stroke="black" fill="none" stroke-linecap="round"></path><path d="M 294.164,221.269 C 295.340,228.323 296.378,228.193 297.164,235.269" stroke-width="3.004" stroke="black" fill="none" stroke-linecap="round"></path><path d="M 297.164,235.269 C 297.878,241.693 296.685,241.803 297.164,248.269" stroke-width="3.130" stroke="black" fill="none" stroke-linecap="round"></path><path d="M 297.164,248.269 C 297.685,255.303 298.495,255.245 299.164,262.269" stroke-width="3.088" stroke="black" fill="none" stroke-linecap="round"></path><path d="M 274.164,204.269 C 277.664,204.269 277.755,204.918 281.164,204.269" stroke-width="5.439" stroke="black" fill="none" stroke-linecap="round"></path><path d="M 281.164,204.269 C 288.255,202.918 288.131,202.144 295.164,200.269" stroke-width="3.494" stroke="black" fill="none" stroke-linecap="round"></path><path d="M 295.164,200.269 C 303.131,198.144 303.335,198.785 311.164,196.269" stroke-width="2.881" stroke="black" fill="none" stroke-linecap="round"></path><path d="M 308.164,210.269 C 306.164,213.269 305.763,213.072 304.164,216.269" stroke-width="5.410" stroke="black" fill="none" stroke-linecap="round"></path><path d="M 304.164,216.269 C 302.763,219.072 302.639,219.183 302.164,222.269" stroke-width="5.103" stroke="black" fill="none" stroke-linecap="round"></path><path d="M 302.164,222.269 C 301.639,225.683 300.859,226.396 302.164,229.269" stroke-width="5.165" stroke="black" fill="none" stroke-linecap="round"></path><path d="M 302.164,229.269 C 303.359,231.896 304.344,231.986 307.164,233.269" stroke-width="4.304" stroke="black" fill="none" stroke-linecap="round"></path><path d="M 307.164,233.269 C 309.844,234.486 310.247,233.473 313.164,234.269" stroke-width="4.190" stroke="black" fill="none" stroke-linecap="round"></path><path d="M 313.164,234.269 C 315.747,234.973 317.289,234.168 318.164,236.269" stroke-width="4.622" stroke="black" fill="none" stroke-linecap="round"></path><path d="M 318.164,236.269 C 319.789,240.168 318.973,241.415 318.164,246.269" stroke-width="4.850" stroke="black" fill="none" stroke-linecap="round"></path><path d="M 318.164,246.269 C 317.473,250.415 317.254,250.611 315.164,254.269" stroke-width="4.019" stroke="black" fill="none" stroke-linecap="round"></path><path d="M 315.164,254.269 C 313.254,257.611 312.800,257.393 310.164,260.269" stroke-width="3.848" stroke="black" fill="none" stroke-linecap="round"></path><path d="M 314.164,180.269 C 315.664,183.769 316.074,183.635 317.164,187.269" stroke-width="5.232" stroke="black" fill="none" stroke-linecap="round"></path><path d="M 317.164,187.269 C 319.074,193.635 318.491,193.813 320.164,200.269" stroke-width="3.578" stroke="black" fill="none" stroke-linecap="round"></path><path d="M 320.164,200.269 C 321.991,207.313 322.201,207.258 324.164,214.269" stroke-width="3.176" stroke="black" fill="none" stroke-linecap="round"></path><path d="M 324.164,214.269 C 325.701,219.758 325.505,219.817 327.164,225.269" stroke-width="3.307" stroke="black" fill="none" stroke-linecap="round"></path><path d="M 327.164,225.269 C 329.005,231.317 329.087,231.296 331.164,237.269" stroke-width="3.249" stroke="black" fill="none" stroke-linecap="round"></path><path d="M 331.164,237.269 C 333.087,242.796 333.315,242.720 335.164,248.269" stroke-width="3.306" stroke="black" fill="none" stroke-linecap="round"></path><path d="M 315.164,219.269 C 319.164,217.769 319.042,217.093 323.164,216.269" stroke-width="5.376" stroke="black" fill="none" stroke-linecap="round"></path><path d="M 323.164,216.269 C 326.542,215.593 326.693,216.558 330.164,216.269" stroke-width="4.320" stroke="black" fill="none" stroke-linecap="round"></path><path d="M 330.164,216.269 C 332.693,216.058 332.832,214.802 335.164,215.269" stroke-width="4.325" stroke="black" fill="none" stroke-linecap="round"></path><path d="M 335.164,215.269 C 337.832,215.802 338.485,216.110 340.164,218.269" stroke-width="4.800" stroke="black" fill="none" stroke-linecap="round"></path><path d="M 340.164,218.269 C 341.985,220.610 341.546,221.178 342.164,224.269" stroke-width="4.287" stroke="black" fill="none" stroke-linecap="round"></path><path d="M 342.164,224.269 C 343.546,231.178 343.553,231.241 344.164,238.269" stroke-width="3.356" stroke="black" fill="none" stroke-linecap="round"></path><path d="M 344.164,238.269 C 344.553,242.741 344.164,242.769 344.164,247.269" stroke-width="3.575" stroke="black" fill="none" stroke-linecap="round"></path><path d="M 344.164,247.269 C 344.164,251.269 344.413,251.284 344.164,255.269" stroke-width="3.746" stroke="black" fill="none" stroke-linecap="round"></path><path d="M 237.164,304.269 C 241.664,301.269 241.369,300.739 246.164,298.269" stroke-width="5.272" stroke="black" fill="none" stroke-linecap="round"></path><path d="M 246.164,298.269 C 257.869,292.239 257.949,292.245 270.164,287.269" stroke-width="2.586" stroke="black" fill="none" stroke-linecap="round"></path><path d="M 270.164,287.269 C 284.949,281.245 285.142,281.708 300.164,276.269" stroke-width="2.045" stroke="black" fill="none" stroke-linecap="round"></path><path d="M 300.164,276.269 C 314.142,271.208 314.040,270.881 328.164,266.269" stroke-width="2.046" stroke="black" fill="none" stroke-linecap="round"></path><path d="M 328.164,266.269 C 338.540,262.881 338.624,263.117 349.164,260.269" stroke-width="2.320" stroke="black" fill="none" stroke-linecap="round"></path><path d="M 349.164,260.269 C 357.124,258.117 357.144,258.178 365.164,256.269" stroke-width="2.618" stroke="black" fill="none" stroke-linecap="round"></path><circle r="1.5" cx="308.1643524169922" cy="279.2685089111328" fill="black"></circle><circle r="1.5" cx="320.1643524169922" cy="273.2685089111328" fill="black"></circle><circle r="1.5" cx="304.1643524169922" cy="245.2685089111328" fill="black"></circle><circle r="1.5" cx="304.1643524169922" cy="245.2685089111328" fill="black"></circle><circle r="1.5" cx="304.1643524169922" cy="245.2685089111328" fill="black"></circle><circle r="1.5" cx="304.1643524169922" cy="245.2685089111328" fill="black"></circle><circle r="1.5" cx="304.1643524169922" cy="244.2685089111328" fill="black"></circle><circle r="1.5" cx="304.1643524169922" cy="244.2685089111328" fill="black"></circle><circle r="1.5" cx="304.1643524169922" cy="244.2685089111328" fill="black"></circle><circle r="1.5" cx="304.1643524169922" cy="244.2685089111328" fill="black"></circle></svg>